Coordinates
version=1
nRows=5
nColumns=63
inDegrees=yes

Units are S.I. units (second, meters, Newtons, ...)
If the header above contains a line with 'inDegrees', this indicates whether rotational values are in degrees (yes) or radians (no).

endheader
time	pelvis_tilt	pelvis_list	pelvis_rotation	pelvis_tx	pelvis_ty	pelvis_tz	hip_flexion_r	hip_adduction_r	hip_rotation_r	knee_angle_r	knee_angle_r_beta	ankle_angle_r	subtalar_angle_r	mtp_angle_r	hip_flexion_l	hip_adduction_l	hip_rotation_l	knee_angle_l	knee_angle_l_beta	ankle_angle_l	subtalar_angle_l	mtp_angle_l	L5_S1_Flex_Ext	L5_S1_Lat_Bending	L5_S1_axial_rotation	L4_L5_Flex_Ext	L4_L5_Lat_Bending	L4_L5_axial_rotation	L3_L4_Flex_Ext	L3_L4_Lat_Bending	L3_L4_axial_rotation	L2_L3_Flex_Ext	L2_L3_Lat_Bending	L2_L3_axial_rotation	L1_L2_Flex_Ext	L1_L2_Lat_Bending	L1_L2_axial_rotation	L1_T12_Flex_Ext	L1_T12_Lat_Bending	L1_T12_axial_rotation	Abs_r3	Abs_r2	Abs_r1	Abs_t1	Abs_t2	neck_flexion	neck_bending	neck_rotation	arm_flex_r	arm_add_r	arm_rot_r	elbow_flex_r	pro_sup_r	wrist_flex_r	wrist_dev_r	arm_flex_l	arm_add_l	arm_rot_l	elbow_flex_l	pro_sup_l	wrist_flex_l	wrist_dev_l
      2.23728814	     -1.70701905	     -4.62407367	     87.54234488	      0.07707831	      0.97507451	      0.32626723	     10.97990813	     -1.98645155	     -4.43315957	     21.49592657	      0.37517469	     20.84283941	     -4.48886931	      0.00000000	      7.99552245	      3.32456311	     -1.14908789	     13.40312894	      0.23392873	     15.30483346	    -16.47340565	      0.00000000	     -0.10330505	     -0.61517063	     -0.49576158	     -0.19184780	     -0.81817694	     -0.52674668	     -0.16971986	     -1.49572588	     -0.52674668	     -0.11806734	     -1.49572588	     -0.43379138	     -0.09592907	     -1.25445595	     -0.40280629	     -0.05902850	     -0.95289931	     -0.37182119	     -0.73789762	     -6.95893323	     -2.75727719	      0.00000000	      0.00000000	      4.79163413	      5.06644506	     11.37953415	     49.30790904	    -14.51570078	     50.04425510	     75.60689583	     88.51710768	     19.26366090	     26.98114457	     13.38973237	    -18.27193406	      1.03949767	     81.50762100	     83.93137251	     -7.55516898	     12.66433312
      2.25423729	     -1.81517757	     -4.72590463	     87.11397145	      0.07659129	      0.97466634	      0.32706278	     11.49686844	     -2.11320170	     -4.03550069	     22.00441039	      0.38404941	     20.78978906	     -4.59720798	      0.00000000	      8.18492936	      3.43898828	     -1.41713935	     13.52419095	      0.23604166	     15.25061721	    -16.58799871	      0.00000000	     -0.12767466	     -0.62195512	     -0.53165278	     -0.23710461	     -0.82720031	     -0.56488108	     -0.20975670	     -1.51222169	     -0.56488108	     -0.14591937	     -1.51222169	     -0.46519619	     -0.11855869	     -1.26829089	     -0.43196789	     -0.07295330	     -0.96340849	     -0.39873959	     -0.91196731	     -7.03568075	     -2.95689328	      0.00000000	      0.00000000	      4.45260627	      4.96690357	     11.62663009	     49.86321142	    -12.23576748	     46.34277402	     74.02410403	     88.87383731	     14.23063838	     23.50298635	     12.61591567	    -18.16589142	     -0.36209824	     83.49228511	     83.24527417	     -7.31475270	     14.83190596
      2.27118644	     -2.00002304	     -4.86388545	     86.72048200	      0.07621090	      0.97430965	      0.32792056	     11.95573308	     -2.33284259	     -3.79650931	     22.32937225	      0.38972107	     20.79192697	     -4.43004366	      0.00000000	      8.42394290	      3.62347600	     -1.62117150	     13.62857338	      0.23786348	     15.15745698	    -16.71884529	      0.00000000	     -0.14829500	     -0.63784726	     -0.53824097	     -0.27539864	     -0.84833686	     -0.57188103	     -0.24363385	     -1.55086183	     -0.57188103	     -0.16948635	     -1.55086183	     -0.47096085	     -0.13770674	     -1.30069814	     -0.43732079	     -0.08473576	     -0.98802541	     -0.40368072	     -1.05925635	     -7.21545580	     -2.99353478	      0.00000000	      0.00000000	      4.31704284	      4.79268669	     11.67827815	     49.88678723	     -9.61894488	     42.48525469	     71.88306349	     88.87650220	      6.14428885	     17.79564851	     12.09627917	    -18.12499814	     -1.29433816	     85.13129726	     83.11843839	     -7.21539182	     16.39705856
      2.28813559	     -2.20681474	     -5.02789329	     86.36264167	      0.07601603	      0.97387225	      0.32883790	     12.34537375	     -2.56908314	     -3.64438716	     22.47565087	      0.39227411	     20.85604003	     -4.05401565	      0.00000000	      8.70811117	      3.80521580	     -1.84756779	     13.73332575	      0.23969175	     15.14462661	    -16.77111485	      0.00000000	     -0.17032120	     -0.65528564	     -0.50150445	     -0.31630350	     -0.87152990	     -0.53284847	     -0.27982070	     -1.59326150	     -0.53284847	     -0.19466010	     -1.59326150	     -0.43881639	     -0.15816027	     -1.33625848	     -0.40747236	     -0.09732153	     -1.01503746	     -0.37612833	     -1.21658731	     -7.41272222	     -2.78921727	      0.00000000	      0.00000000	      4.44568135	      4.49806438	     11.64250190	     49.70513736	     -6.52308628	     38.19466121	     69.43906159	     88.48585322	     -1.67748583	     12.95542676	     11.90011601	    -18.02083355	     -1.79286327	     86.25896817	     83.53658882	     -7.09679697	     16.95013291
      2.30508475	     -2.42217054	     -5.31439542	     86.06791954	      0.07574716	      0.97317196	      0.32948737	     12.77066044	     -2.81611916	     -3.54797210	     22.49276596	      0.39257282	     20.94640827	     -3.60953217	      0.00000000	      9.12970455	      3.98944579	     -2.06651947	     13.84476184	      0.24163668	     15.22235663	    -16.77875332	      0.00000000	     -0.17069070	     -0.67059675	     -0.42949145	     -0.31698970	     -0.89189368	     -0.45633466	     -0.28042775	     -1.63048894	     -0.45633466	     -0.19508240	     -1.63048894	     -0.37580502	     -0.15850338	     -1.36748089	     -0.34896180	     -0.09753267	     -1.03875437	     -0.32211859	     -1.21922659	     -7.58592455	     -2.38870258	      0.00000000	      0.00000000	      4.80050918	      4.24416124	     11.43375144	     49.43586468	     -3.30802852	     33.38428329	     67.26351483	     87.31172487	     -6.71282923	     10.94890803	     11.93390410	    -17.75425845	     -1.99066915	     86.88100092	     84.23899449	     -6.84807563	     16.54318540
